<?xml version="1.0" standalone="no"?>
<!DOCTYPE svg PUBLIC "-//W3C//DTD SVG 20010904//EN"
 "http://www.w3.org/TR/2001/REC-SVG-20010904/DTD/svg10.dtd">
<svg version="1.0" xmlns="http://www.w3.org/2000/svg"
 width="700.000000pt" height="700.000000pt" viewBox="0 0 700.000000 700.000000"
 preserveAspectRatio="xMidYMid meet">
<metadata>
Created by potrace 1.11, written by Peter Selinger 2001-2013
</metadata>
<g transform="translate(0.000000,700.000000) scale(0.100000,-0.100000)"
fill="#000000" stroke="none">
<path d="M442 4940 c-106 -28 -187 -75 -268 -156 -51 -50 -82 -92 -107 -145
-69 -139 -66 -86 -66 -1129 -1 -1052 -2 -1020 67 -1155 43 -83 143 -188 222
-232 48 -27 102 -49 175 -71 11 -3 1368 -7 3016 -8 3091 -2 3016 -3 3134 34
110 34 254 158 313 269 18 34 41 97 52 139 19 75 20 112 20 1013 -1 1031 0
1006 -63 1134 -77 155 -219 268 -394 314 -15 4 -1378 8 -3028 9 -2911 2 -3002
2 -3073 -16z m6092 -297 c60 -28 121 -90 150 -152 l21 -46 0 -945 0 -945 -23
-49 c-33 -67 -73 -108 -140 -142 l-57 -29 -2985 0 -2985 0 -50 25 c-62 30
-121 90 -149 149 -21 46 -21 53 -24 970 -3 1024 -5 985 62 1073 40 52 91 85
156 103 35 10 708 12 3010 11 l2965 -1 49 -22z"/>
<path d="M1291 4079 c-51 -11 -80 -29 -102 -66 -18 -29 -21 -51 -22 -143 -1
-61 -5 -110 -8 -110 -4 0 -47 23 -95 52 -70 41 -96 51 -130 50 -79 -1 -134
-53 -142 -134 -7 -72 23 -111 132 -171 47 -27 86 -52 86 -56 0 -3 -39 -29 -86
-56 -98 -57 -124 -87 -132 -152 -9 -85 54 -154 141 -155 33 -1 61 10 131 51
49 28 92 49 95 45 3 -3 7 -53 7 -110 2 -92 5 -109 25 -139 59 -86 179 -88 241
-5 21 29 27 67 27 188 l1 83 28 -19 c58 -41 160 -92 190 -96 43 -5 104 25 132
64 41 58 30 145 -25 192 -11 9 -55 36 -97 60 -43 24 -78 45 -78 48 0 3 32 23
72 45 39 22 84 50 99 63 107 88 44 256 -94 254 -28 -1 -64 -15 -129 -52 -50
-28 -92 -49 -95 -47 -2 3 -4 47 -4 99 0 51 -4 107 -10 124 -19 61 -96 107
-158 93z"/>
<path d="M2707 4066 c-65 -35 -81 -71 -82 -192 0 -106 -5 -124 -27 -107 -13
10 -91 55 -138 79 -39 20 -73 23 -112 10 -65 -23 -98 -69 -98 -139 0 -66 31
-103 133 -161 48 -28 87 -53 87 -56 -1 -3 -42 -30 -92 -60 -102 -61 -131 -96
-130 -161 2 -106 117 -175 210 -126 71 38 99 54 125 71 15 10 31 16 34 12 4
-4 8 -54 9 -111 1 -87 5 -109 23 -138 41 -66 131 -87 196 -47 57 35 72 78 71
198 -1 62 3 102 9 101 6 0 24 -9 40 -19 17 -11 62 -35 100 -54 61 -31 75 -34
108 -27 55 13 86 37 107 83 39 87 3 152 -125 225 -47 26 -85 51 -85 54 0 3 38
26 84 52 47 26 94 59 105 73 72 91 21 225 -89 234 -51 4 -68 -1 -153 -50 -48
-27 -91 -50 -95 -50 -4 0 -7 51 -8 113 0 122 -9 149 -62 183 -47 31 -98 34
-145 10z"/>
<path d="M5660 4082 c-36 -5 -90 -49 -105 -86 -7 -17 -13 -60 -13 -96 -1 -36
-1 -84 -1 -108 l-1 -43 -27 19 c-74 51 -164 93 -201 94 -98 1 -170 -91 -141
-182 16 -50 43 -75 136 -128 46 -26 83 -49 83 -52 0 -3 -21 -17 -47 -31 -147
-77 -185 -120 -177 -200 5 -52 16 -72 59 -104 56 -44 108 -38 216 25 50 29 93
50 96 47 3 -4 5 -50 5 -104 0 -72 4 -107 16 -132 45 -92 160 -110 233 -37 35
35 42 67 42 184 0 50 2 92 5 92 2 0 39 -19 81 -42 101 -57 121 -65 156 -61 74
6 127 61 132 137 6 74 -17 104 -127 168 -49 29 -90 56 -90 60 0 3 35 26 78 49
95 53 128 85 137 132 19 100 -47 182 -145 181 -27 0 -63 -16 -138 -60 -40 -24
-77 -44 -82 -44 -4 0 -7 39 -6 86 2 108 -13 167 -49 198 -31 27 -86 44 -125
38z"/>
<path d="M4153 4060 c-52 -31 -66 -71 -68 -188 -1 -56 -4 -105 -8 -108 -3 -3
-37 13 -76 36 -39 24 -88 48 -107 55 -97 33 -200 -51 -187 -153 8 -64 60 -113
191 -178 17 -9 32 -19 32 -23 0 -3 -38 -28 -85 -54 -46 -26 -93 -59 -104 -74
-72 -90 -20 -224 89 -233 51 -4 68 1 154 51 49 27 90 48 93 45 3 -3 6 -54 7
-113 3 -122 13 -147 72 -184 58 -35 125 -25 177 26 36 36 43 70 42 182 0 51 3
93 7 93 4 0 40 -19 81 -43 88 -53 123 -65 161 -60 74 10 126 71 126 145 0 66
-30 103 -132 162 -48 28 -88 53 -88 56 0 3 42 30 92 60 102 61 131 96 130 160
-1 63 -33 109 -92 133 -54 22 -91 13 -194 -48 -42 -25 -80 -45 -84 -45 -4 0
-7 46 -7 103 0 84 -3 109 -20 142 -37 70 -134 97 -202 55z"/>
</g>
</svg>
